<?xml version="1.0" encoding="UTF-8" standalone="no"?>
<svg
   xmlns:dc="http://purl.org/dc/elements/1.1/"
   xmlns:cc="http://creativecommons.org/ns#"
   xmlns:rdf="http://www.w3.org/1999/02/22-rdf-syntax-ns#"
   xmlns:svg="http://www.w3.org/2000/svg"
   xmlns="http://www.w3.org/2000/svg"
   xmlns:sodipodi="http://sodipodi.sourceforge.net/DTD/sodipodi-0.dtd"
   xmlns:inkscape="http://www.inkscape.org/namespaces/inkscape"
   width="400mm"
   height="50mm"
   viewBox="0 0 400 50"
   version="1.1"
   id="svg622"
   inkscape:version="0.92.1 r15371"
   sodipodi:docname="TISM - If you want the toilet, you're in it.svg"
   inkscape:export-filename="/Users/phil/SyncRoots/General/Projects/_2D_modelling_and_cutting/TISM - If you want the toilet, you're in it.png"
   inkscape:export-xdpi="96"
   inkscape:export-ydpi="96">
  <defs
     id="defs616" />
  <sodipodi:namedview
     id="base"
     pagecolor="#ffffff"
     bordercolor="#666666"
     borderopacity="1.0"
     inkscape:pageopacity="0.0"
     inkscape:pageshadow="2"
     inkscape:zoom="0.63096825"
     inkscape:cx="737.41633"
     inkscape:cy="-13.105294"
     inkscape:document-units="mm"
     inkscape:current-layer="layer1"
     inkscape:document-rotation="0"
     showgrid="false"
     inkscape:window-width="1920"
     inkscape:window-height="1027"
     inkscape:window-x="1912"
     inkscape:window-y="-8"
     inkscape:window-maximized="1" />
  <metadata
     id="metadata619">
    <rdf:RDF>
      <cc:Work
         rdf:about="">
        <dc:format>image/svg+xml</dc:format>
        <dc:type
           rdf:resource="http://purl.org/dc/dcmitype/StillImage" />
        <dc:title />
      </cc:Work>
    </rdf:RDF>
  </metadata>
  <g
     inkscape:label="Border"
     inkscape:groupmode="layer"
     id="layer1">
    <rect
       style="fill:none;stroke:#0000ff;stroke-width:0.988838;stroke-miterlimit:4;stroke-dasharray:none;stroke-opacity:1"
       id="rect634"
       width="399.01114"
       height="49.011269"
       x="0.49441901"
       y="0.49441901"
       ry="12.205141" />
    <rect
       ry="11.206225"
       y="2.5"
       x="2.5"
       height="45"
       width="395"
       id="rect634-0"
       style="fill:none;stroke-width:2.5;stroke:#ff0000;stroke-opacity:1;stroke-miterlimit:4;stroke-dasharray:none" />
    <g
       aria-label="If you want the toilet, you're in it - TISM"
       id="text661"
       style="font-style:normal;font-variant:normal;font-weight:normal;font-stretch:normal;font-size:31.75000000000000000px;line-height:1.25;font-family:'Savoye LET';-inkscape-font-specification:'Savoye LET';text-align:center;text-anchor:middle;fill:#000000;fill-opacity:1;stroke:none;stroke-width:0.271423;stroke-opacity:1">
      <path
         id="path1695"
         style="font-style:normal;font-variant:normal;font-weight:normal;font-stretch:normal;font-size:17.63889999999999958px;font-family:arial;-inkscape-font-specification:arial;stroke:none;stroke-opacity:1;fill:#000000"
         d="M 347.76922,32.854279 V 20.227995 h 2.51493 l 2.98862,8.940029 q 0.41341,1.248848 0.60289,1.868965 0.21532,-0.689019 0.67179,-2.023994 l 3.02308,-8.785 h 2.24792 v 12.626284 h -1.61058 V 22.286441 l -3.66903,10.567838 h -1.50723 l -3.6518,-10.748706 v 10.748706 z m -12.29899,-4.056603 1.57614,-0.137804 q 0.11196,0.947402 0.51676,1.558907 0.41341,0.602892 1.27469,0.981853 0.86127,0.370348 1.93786,0.370348 0.95602,0 1.6881,-0.284221 0.73209,-0.284221 1.08521,-0.775147 0.36173,-0.499539 0.36173,-1.085206 0,-0.594279 -0.34451,-1.033529 -0.34451,-0.447863 -1.13688,-0.749309 -0.50815,-0.198093 -2.24793,-0.611505 -1.73977,-0.422024 -2.4374,-0.792372 -0.90434,-0.473701 -1.3522,-1.171333 -0.43925,-0.706246 -0.43925,-1.576133 0,-0.956014 0.5426,-1.782838 0.5426,-0.835436 1.58474,-1.266073 1.04215,-0.430638 2.31683,-0.430638 1.40388,0 2.47186,0.456476 1.07659,0.447863 1.65365,1.326363 0.57705,0.8785 0.62012,1.989544 l -1.60198,0.120578 q -0.12919,-1.197171 -0.8785,-1.808676 -0.74069,-0.611505 -2.19624,-0.611505 -1.51585,0 -2.21348,0.559828 -0.68902,0.551216 -0.68902,1.334976 0,0.680406 0.49093,1.119656 0.48231,0.43925 2.51492,0.904339 2.04122,0.456475 2.79914,0.800985 1.10243,0.508152 1.62781,1.291911 0.52538,0.775147 0.52538,1.791451 0,1.007691 -0.57706,1.903417 -0.57705,0.887113 -1.66226,1.386652 -1.07659,0.490926 -2.42879,0.490926 -1.71394,0 -2.87666,-0.499539 -1.15411,-0.499539 -1.81729,-1.498618 -0.65457,-1.007691 -0.68902,-2.273764 z m -4.03939,4.056603 V 20.227995 h 1.67087 v 12.626284 z m -7.85481,0 V 21.718 h -4.15996 v -1.490005 h 10.00801 V 21.718 h -4.17718 v 11.136279 z m -14.79671,-3.789608 v -1.558907 h 4.76284 v 1.558907 z m -8.61446,-4.488957 -1.17822,5.162476 q -0.18604,0.852661 -0.18604,1.209228 0,0.558106 0.26355,0.89917 0.26355,0.341065 0.69763,0.341065 0.41858,0 0.75965,-0.232544 0.35656,-0.248047 1.0697,-1.007691 l 0.18603,-0.186035 0.23255,0.232544 q -0.91467,1.116211 -1.53479,1.581299 -0.60462,0.449585 -1.19373,0.449585 -0.74414,0 -1.19372,-0.480591 -0.43408,-0.496094 -0.43408,-1.286743 0,-0.589112 0.23254,-1.705322 l 1.00769,-4.976441 h -1.48828 l 0.10852,-0.527099 h 1.48828 l 0.86816,-4.185792 1.48829,-0.589111 -1.08521,4.774903 h 2.51148 l -0.10853,0.527099 z m -3.99976,-6.867798 q 0.40308,0 0.65113,0.248047 0.24804,0.248047 0.24804,0.651123 0,0.387573 -0.26355,0.651123 -0.26355,0.26355 -0.63562,0.26355 -0.35656,0 -0.63562,-0.279053 -0.27905,-0.279052 -0.27905,-0.63562 0,-0.37207 0.26355,-0.63562 0.26355,-0.26355 0.65112,-0.26355 z m -0.44958,6.077149 -1.36426,5.100464 q -0.34106,1.255737 -0.34106,2.01538 0,0.496094 0.17053,0.806153 0.17053,0.310058 0.44958,0.310058 0.4806,0 1.53479,-1.147216 l 0.24805,0.217041 -0.15503,0.170532 q -0.88367,1.038696 -1.30224,1.410766 -0.41858,0.356568 -0.77515,0.356568 -0.48059,0 -0.82166,-0.480591 -0.32556,-0.496094 -0.32556,-1.224731 0,-0.465088 0.18604,-1.472779 l 0.97668,-5.426025 z m -18.75855,9.224243 1.64332,-8.588623 1.47277,-0.63562 -1.33325,5.689575 q 1.28674,-2.713013 2.55798,-4.123779 1.27125,-1.410767 2.43396,-1.410767 0.57361,0 0.93018,0.387573 0.35657,0.372071 0.35657,1.007691 0,0.356567 -0.17053,1.00769 l -0.15503,0.651123 -0.46509,1.891358 -0.15503,0.604614 q -0.23254,0.930176 -0.23254,1.426269 0,0.496094 0.17053,0.806153 0.17053,0.294555 0.44958,0.294555 0.48059,0 1.53479,-1.147216 l 0.24805,0.217041 -0.15503,0.170532 q -0.88367,1.038696 -1.30225,1.410766 -0.41858,0.356568 -0.77514,0.356568 -0.48059,0 -0.82166,-0.480591 -0.32556,-0.496094 -0.32556,-1.224731 0,-0.496094 0.18604,-1.472779 l 0.60461,-3.286621 q 0.12402,-0.775146 0.12402,-1.085205 0,-0.325561 -0.17053,-0.496094 -0.17053,-0.170532 -0.46509,-0.170532 -1.0697,0 -2.63549,2.294434 -0.75965,1.100708 -1.25574,2.185913 -0.4961,1.069702 -1.11621,2.976562 l -0.13953,0.418579 z m -1.19372,-15.301392 q 0.40308,0 0.65112,0.248047 0.24805,0.248047 0.24805,0.651123 0,0.387573 -0.26355,0.651123 -0.26355,0.26355 -0.63562,0.26355 -0.35657,0 -0.63562,-0.279053 -0.27905,-0.279052 -0.27905,-0.63562 0,-0.37207 0.26355,-0.63562 0.26355,-0.26355 0.65112,-0.26355 z m -0.44959,6.077149 -1.36425,5.100464 q -0.34107,1.255737 -0.34107,2.01538 0,0.496094 0.17053,0.806153 0.17054,0.310058 0.44959,0.310058 0.48059,0 1.53479,-1.147216 l 0.24805,0.217041 -0.15503,0.170532 q -0.88367,1.038696 -1.30225,1.410766 -0.41858,0.356568 -0.77515,0.356568 -0.48059,0 -0.82165,-0.480591 -0.32556,-0.496094 -0.32556,-1.224731 0,-0.465088 0.18603,-1.472779 l 0.97669,-5.426025 z m -9.96838,6.666259 0.27905,0.232544 q -0.96118,1.271241 -1.87585,1.844849 -0.91467,0.558106 -1.96887,0.558106 -1.25574,0 -2.01538,-0.837159 -0.75965,-0.837158 -0.75965,-2.216919 0,-1.395263 0.72864,-2.821533 0.74414,-1.441772 1.84485,-2.371948 1.11621,-0.945679 2.20141,-0.945679 0.63562,0 1.0387,0.372071 0.41858,0.37207 0.41858,0.961181 0,1.193726 -1.30225,2.387451 -1.30224,1.193726 -3.55017,2.030884 -0.0155,0.124024 -0.0155,0.279053 0,1.069702 0.58911,1.751831 0.58911,0.666626 1.51929,0.666626 0.72864,0 1.41076,-0.449585 0.68213,-0.465088 1.45728,-1.441773 z m -4.96094,-1.178222 q 1.67432,-0.744141 2.57349,-1.658814 0.60461,-0.620117 0.97668,-1.333252 0.37207,-0.713134 0.37207,-1.286743 0,-0.728637 -0.66662,-0.728637 -1.00769,0 -2.04639,1.596801 -1.02319,1.581299 -1.20923,3.410645 z m -8.26306,-0.821655 q 1.33325,-1.612305 1.78284,-3.007569 -1.25574,-0.697632 -1.25574,-1.999878 0,-0.620117 0.29456,-1.00769 0.29455,-0.387573 0.74414,-0.387573 0.46508,0 0.75964,0.434082 0.29456,0.418579 0.29456,1.100708 0,0.48059 -0.17054,1.069702 0.41858,0.10852 0.75965,0.10852 0.96118,0 1.5813,-0.558105 h 0.74414 l -0.10852,0.217041 q -1.11621,2.046387 -1.84485,4.030762 -0.71314,1.968872 -0.71314,2.945556 0,0.356568 0.18604,0.604614 0.18603,0.232544 0.44958,0.232544 0.63562,0 2.04639,-1.348755 l 0.24805,0.279053 q -0.43409,0.480591 -1.34876,1.193726 -0.82165,0.651123 -1.53479,0.651123 -0.60461,0 -0.96118,-0.403076 -0.34106,-0.403076 -0.34106,-1.100708 0,-1.16272 0.89917,-2.945557 0.32556,-0.666626 0.83715,-1.519287 0.5116,-0.852661 1.28675,-2.030884 l 0.15503,-0.217041 q -0.5116,0.465088 -0.99219,0.666626 -0.46509,0.186035 -1.0697,0.186035 -0.27906,0 -0.58911,-0.07751 -0.4961,1.519287 -1.86036,3.131591 z m 2.1239,-3.937745 q 0.062,-0.387573 0.062,-0.651123 0,-0.542602 -0.18603,-0.852661 -0.17053,-0.310058 -0.44959,-0.310058 -0.15503,0 -0.27905,0.155029 -0.10852,0.139526 -0.10852,0.356567 0,0.728638 0.96118,1.302246 z m -3.00757,-1.348754 h -0.26355 l 0.12403,-2.015381 0.031,-0.325562 q 0.062,-0.759643 0.5116,-0.759643 0.44959,0 0.44959,0.449585 0,0.248046 -0.23255,0.883667 z m -7.87548,0.620117 -1.50379,5.999633 q -0.20154,0.806153 -0.20154,1.364258 0,0.542603 0.34107,0.868164 0.34106,0.325562 0.88367,0.325562 1.31774,0 2.74401,-2.154907 l 0.062,-0.09302 q 0.031,-0.155029 0.0465,-0.248047 l 0.97669,-5.426025 1.51929,-0.63562 -1.36426,5.100464 q -0.34107,1.255737 -0.34107,2.01538 0,0.496094 0.17054,0.806153 0.17053,0.310058 0.44958,0.310058 0.48059,0 1.53479,-1.147216 l 0.24805,0.217041 -0.15503,0.170532 q -0.88367,1.038696 -1.30225,1.410766 -0.41858,0.356568 -0.77514,0.356568 -0.4806,0 -0.82166,-0.480591 -0.32556,-0.496094 -0.32556,-1.224731 0,-0.232544 0.0155,-0.434083 -1.6123,2.139405 -3.1936,2.139405 -0.79065,0 -1.27124,-0.449585 -0.46509,-0.465088 -0.46509,-1.224732 0,-0.589111 0.17053,-1.441772 l 1.0542,-5.488037 z m -12.44886,6.092651 q 0,-1.395264 0.74414,-2.775024 0.75965,-1.395264 1.95337,-2.263428 1.19373,-0.868164 2.43396,-0.868164 1.30225,0 2.0929,0.868164 0.80615,0.852661 0.80615,2.216919 0,1.488281 -0.74414,2.883545 -0.72864,1.395263 -1.93787,2.294433 -1.19372,0.883667 -2.41845,0.883667 -1.31775,0 -2.1239,-0.883667 -0.80616,-0.89917 -0.80616,-2.356445 z m 6.63526,-3.410644 q 0,-0.930176 -0.46509,-1.534791 -0.44959,-0.604614 -1.16272,-0.604614 -0.65112,0 -1.25574,0.418579 -0.58911,0.418579 -1.0852,1.224732 -0.55811,0.930176 -0.93018,2.17041 -0.35657,1.240234 -0.35657,2.201416 0,1.147217 0.44959,1.767334 0.44958,0.620117 1.28674,0.620117 1.34876,0 2.37195,-1.875854 0.5271,-0.961182 0.83716,-2.154908 0.31006,-1.193725 0.31006,-2.232421 z m -17.31678,11.890747 0.75965,-1.023194 q 0.89917,0.961182 2.03088,0.961182 1.19373,0 1.92237,-0.945679 0.72863,-0.945679 1.19372,-3.100586 l 0.71314,-3.209106 q -1.70533,1.999878 -3.08509,1.999878 -0.80615,0 -1.27124,-0.496094 -0.44958,-0.496094 -0.44958,-1.333252 0,-0.558105 0.13952,-1.224731 l 1.0542,-5.565552 1.50379,-0.63562 -1.50379,6.24768 q -0.18603,0.759644 -0.18603,1.131714 0,0.5271 0.31006,0.868164 0.32556,0.325562 0.85266,0.325562 0.57361,0 1.25573,-0.496094 0.69764,-0.511597 1.5503,-1.519287 l 1.33325,-5.922119 1.45728,-0.63562 -2.26343,9.115722 q -0.40308,1.643311 -0.77515,2.573487 -0.35657,0.930175 -0.83716,1.550293 -1.51928,1.953369 -3.7052,1.953369 -1.27124,0 -1.99988,-0.620117 z m -11.00708,-2.945557 -0.23254,-0.356567 q 0.97669,-0.620118 1.5968,-1.255738 0.63562,-0.63562 0.83716,-1.209228 -0.43408,0.341064 -0.80615,0.341064 -0.41858,0 -0.65112,-0.26355 -0.23255,-0.279052 -0.23255,-0.713134 0,-0.63562 0.40308,-1.085205 0.40307,-0.465088 0.99219,-0.465088 0.48059,0 0.80615,0.37207 0.32556,0.356567 0.32556,0.89917 0,0.930176 -0.86817,1.984375 -0.85266,1.054199 -2.17041,1.751831 z m -3.25561,-10.836548 -1.17822,5.162476 q -0.18604,0.852661 -0.18604,1.209228 0,0.558106 0.26355,0.89917 0.26355,0.341065 0.69763,0.341065 0.41858,0 0.75965,-0.232544 0.35656,-0.248047 1.0697,-1.007691 l 0.18603,-0.186035 0.23255,0.232544 q -0.91467,1.116211 -1.53479,1.581299 -0.60462,0.449585 -1.19373,0.449585 -0.74414,0 -1.19372,-0.480591 -0.43409,-0.496094 -0.43409,-1.286743 0,-0.589112 0.23255,-1.705322 l 1.00769,-4.976441 h -1.48828 l 0.10852,-0.527099 h 1.48828 l 0.86816,-4.185792 1.48829,-0.589111 -1.08521,4.774903 h 2.51147 l -0.10852,0.527099 z m -4.30982,5.87561 0.27906,0.232544 q -0.96118,1.271241 -1.87586,1.844849 -0.91467,0.558106 -1.96887,0.558106 -1.25574,0 -2.01538,-0.837159 -0.75964,-0.837158 -0.75964,-2.216919 0,-1.395263 0.72863,-2.821533 0.74415,-1.441772 1.84485,-2.371948 1.11621,-0.945679 2.20142,-0.945679 0.63562,0 1.0387,0.372071 0.41857,0.37207 0.41857,0.961181 0,1.193726 -1.30224,2.387451 -1.30225,1.193726 -3.55017,2.030884 -0.0155,0.124024 -0.0155,0.279053 0,1.069702 0.58912,1.751831 0.58911,0.666626 1.51928,0.666626 0.72864,0 1.41077,-0.449585 0.68213,-0.465088 1.45727,-1.441773 z m -4.96093,-1.178222 q 1.67431,-0.744141 2.57348,-1.658814 0.60462,-0.620117 0.97669,-1.333252 0.37207,-0.713134 0.37207,-1.286743 0,-0.728637 -0.66663,-0.728637 -1.00769,0 -2.04638,1.596801 -1.0232,1.581299 -1.20923,3.410645 z m -0.15503,-18.262451 -4.07727,17.874878 -0.13953,0.604614 q -0.20154,0.852661 -0.20154,1.441772 0,0.480591 0.17054,0.79065 0.18603,0.294555 0.44958,0.294555 0.48059,0 1.53479,-1.147216 l 0.24805,0.217041 -0.15503,0.170532 q -0.88367,1.038696 -1.30225,1.410766 -0.41858,0.356568 -0.77514,0.356568 -0.46509,0 -0.82166,-0.511597 -0.34106,-0.527099 -0.34106,-1.193725 0,-0.465088 0.20153,-1.472779 l 3.58118,-18.04541 z m -6.8523,6.697265 q 0.40308,0 0.65113,0.248047 0.24804,0.248047 0.24804,0.651123 0,0.387573 -0.26355,0.651123 -0.26355,0.26355 -0.63562,0.26355 -0.35656,0 -0.63562,-0.279053 -0.27905,-0.279052 -0.27905,-0.63562 0,-0.37207 0.26355,-0.63562 0.26355,-0.26355 0.65112,-0.26355 z m -0.44958,6.077149 -1.36426,5.100464 q -0.34106,1.255737 -0.34106,2.01538 0,0.496094 0.17053,0.806153 0.17053,0.310058 0.44958,0.310058 0.48059,0 1.53479,-1.147216 l 0.24805,0.217041 -0.15503,0.170532 q -0.88367,1.038696 -1.30225,1.410766 -0.41857,0.356568 -0.77514,0.356568 -0.48059,0 -0.82166,-0.480591 -0.32556,-0.496094 -0.32556,-1.224731 0,-0.465088 0.18604,-1.472779 l 0.97668,-5.426025 z m -12.40235,6.092651 q 0,-1.395264 0.74415,-2.775024 0.75964,-1.395264 1.95336,-2.263428 1.19373,-0.868164 2.43396,-0.868164 1.30225,0 2.0929,0.868164 0.80615,0.852661 0.80615,2.216919 0,1.488281 -0.74414,2.883545 -0.72864,1.395263 -1.93786,2.294433 -1.19373,0.883667 -2.41846,0.883667 -1.31775,0 -2.1239,-0.883667 -0.80616,-0.89917 -0.80616,-2.356445 z m 6.63526,-3.410644 q 0,-0.930176 -0.46509,-1.534791 -0.44958,-0.604614 -1.16272,-0.604614 -0.65112,0 -1.25574,0.418579 -0.58911,0.418579 -1.0852,1.224732 -0.55811,0.930176 -0.93018,2.17041 -0.35656,1.240234 -0.35656,2.201416 0,1.147217 0.44958,1.767334 0.44959,0.620117 1.28674,0.620117 1.34876,0 2.37195,-1.875854 0.5271,-0.961182 0.83716,-2.154908 0.31006,-1.193725 0.31006,-2.232421 z m -9.37927,-1.891358 -1.17823,5.162476 q -0.18603,0.852661 -0.18603,1.209228 0,0.558106 0.26355,0.89917 0.26355,0.341065 0.69763,0.341065 0.41858,0 0.75964,-0.232544 0.35657,-0.248047 1.06971,-1.007691 l 0.18603,-0.186035 0.23254,0.232544 q -0.91467,1.116211 -1.53479,1.581299 -0.60461,0.449585 -1.19372,0.449585 -0.74414,0 -1.19373,-0.480591 -0.43408,-0.496094 -0.43408,-1.286743 0,-0.589112 0.23255,-1.705322 l 1.00769,-4.976441 h -1.48829 l 0.10853,-0.527099 h 1.48828 l 0.86816,-4.185792 1.48828,-0.589111 -1.0852,4.774903 h 2.51147 l -0.10852,0.527099 z m -9.82886,5.87561 0.27905,0.232544 q -0.96118,1.271241 -1.87585,1.844849 -0.91468,0.558106 -1.96888,0.558106 -1.25573,0 -2.01538,-0.837159 -0.75964,-0.837158 -0.75964,-2.216919 0,-1.395263 0.72864,-2.821533 0.74414,-1.441772 1.84485,-2.371948 1.11621,-0.945679 2.20141,-0.945679 0.63562,0 1.0387,0.372071 0.41858,0.37207 0.41858,0.961181 0,1.193726 -1.30225,2.387451 -1.30224,1.193726 -3.55017,2.030884 -0.0155,0.124024 -0.0155,0.279053 0,1.069702 0.58911,1.751831 0.58911,0.666626 1.51929,0.666626 0.72863,0 1.41076,-0.449585 0.68213,-0.465088 1.45728,-1.441773 z m -4.96094,-1.178222 q 1.67432,-0.744141 2.57349,-1.658814 0.60461,-0.620117 0.97668,-1.333252 0.37207,-0.713134 0.37207,-1.286743 0,-0.728637 -0.66662,-0.728637 -1.00769,0 -2.04639,1.596801 -1.02319,1.581299 -1.20923,3.410645 z m -11.36365,3.736206 4.12378,-21.208008 1.62781,-0.790649 -4.29431,18.882568 q 0.062,-0.108521 0.062,-0.139526 l 0.35657,-0.806153 q 0.91467,-2.077392 2.29443,-3.596679 1.30225,-1.410767 2.40296,-1.410767 0.58911,0 0.94567,0.387573 0.35657,0.372071 0.35657,1.007691 0,0.356567 -0.17053,1.00769 l -0.15503,0.651123 -0.48059,1.891358 -0.13953,0.604614 q -0.23254,0.930176 -0.23254,1.426269 0,0.496094 0.17053,0.806153 0.17053,0.294555 0.44959,0.294555 0.48059,0 1.53479,-1.147216 l 0.23254,0.217041 -0.13953,0.170532 q -0.88366,1.038696 -1.31774,1.410766 -0.41858,0.356568 -0.75965,0.356568 -0.48059,0 -0.82165,-0.511597 -0.34107,-0.511597 -0.34107,-1.193725 0,-0.41858 0.20154,-1.472779 l 0.58911,-3.286621 q 0.13953,-0.728638 0.13953,-1.085205 0,-0.325561 -0.17053,-0.496094 -0.17054,-0.170532 -0.46509,-0.170532 -0.57361,0 -1.31775,0.682129 -0.74414,0.666626 -1.50379,1.860352 -0.74414,1.193725 -1.30224,2.557983 -0.55811,1.348755 -0.83716,2.775024 z m -2.682,-8.433594 -1.17823,5.162476 q -0.18603,0.852661 -0.18603,1.209228 0,0.558106 0.26355,0.89917 0.26355,0.341065 0.69763,0.341065 0.41858,0 0.75964,-0.232544 0.35657,-0.248047 1.06971,-1.007691 l 0.18603,-0.186035 0.23255,0.232544 q -0.91468,1.116211 -1.53479,1.581299 -0.60462,0.449585 -1.19373,0.449585 -0.74414,0 -1.19373,-0.480591 -0.43408,-0.496094 -0.43408,-1.286743 0,-0.589112 0.23255,-1.705322 l 1.00769,-4.976441 h -1.48828 l 0.10852,-0.527099 h 1.48828 l 0.86816,-4.185792 1.48828,-0.589111 -1.0852,4.774903 h 2.51147 l -0.10852,0.527099 z m -11.22412,0 -1.17823,5.162476 q -0.18603,0.852661 -0.18603,1.209228 0,0.558106 0.26355,0.89917 0.26355,0.341065 0.69763,0.341065 0.41858,0 0.75964,-0.232544 0.35657,-0.248047 1.06971,-1.007691 l 0.18603,-0.186035 0.23254,0.232544 q -0.91467,1.116211 -1.53479,1.581299 -0.60461,0.449585 -1.19372,0.449585 -0.74414,0 -1.19373,-0.480591 -0.43408,-0.496094 -0.43408,-1.286743 0,-0.589112 0.23255,-1.705322 l 1.00769,-4.976441 h -1.48829 l 0.10852,-0.527099 h 1.48829 l 0.86816,-4.185792 1.48828,-0.589111 -1.0852,4.774903 h 2.51147 l -0.10852,0.527099 z m -13.09998,8.433594 1.64331,-8.588623 1.47278,-0.63562 -1.33325,5.689575 q 1.28674,-2.713013 2.55798,-4.123779 1.27124,-1.410767 2.43396,-1.410767 0.57361,0 0.93018,0.387573 0.35656,0.372071 0.35656,1.007691 0,0.356567 -0.17053,1.00769 l -0.15503,0.651123 -0.46509,1.891358 -0.15503,0.604614 q -0.23254,0.930176 -0.23254,1.426269 0,0.496094 0.17053,0.806153 0.17054,0.294555 0.44959,0.294555 0.48059,0 1.53479,-1.147216 l 0.24804,0.217041 -0.15502,0.170532 q -0.88367,1.038696 -1.30225,1.410766 -0.41858,0.356568 -0.77515,0.356568 -0.48059,0 -0.82165,-0.480591 -0.32556,-0.496094 -0.32556,-1.224731 0,-0.496094 0.18603,-1.472779 l 0.60462,-3.286621 q 0.12402,-0.775146 0.12402,-1.085205 0,-0.325561 -0.17053,-0.496094 -0.17054,-0.170532 -0.46509,-0.170532 -1.0697,0 -2.6355,2.294434 -0.75964,1.100708 -1.25574,2.185913 -0.49609,1.069702 -1.11621,2.976562 l -0.13952,0.418579 z m -1.76733,-9.317261 -1.45728,5.674072 q -0.23254,0.930176 -0.23254,1.457276 0,0.465088 0.20153,0.806152 0.20154,0.341065 0.4961,0.341065 0.44958,0 1.48828,-1.100708 l 0.21704,0.217041 -0.17053,0.201538 q -0.82166,0.945678 -1.27124,1.333252 -0.43408,0.37207 -0.75965,0.37207 -0.49609,0 -0.86816,-0.511597 -0.35657,-0.527099 -0.35657,-1.209228 0,-0.496094 0.37207,-2.247925 l 0.12403,-0.589111 q -0.57361,1.333252 -1.53479,2.557983 -1.61231,2.046387 -3.08509,2.046387 -0.88366,0 -1.39526,-0.63562 -0.5116,-0.635621 -0.5116,-1.705323 0,-1.457275 0.82166,-3.054077 0.83716,-1.596802 2.06189,-2.619995 1.24023,-1.038696 2.40295,-1.038696 1.22473,0 1.82935,0.89917 l 0.17053,-0.589112 z m -1.78284,1.984375 q -0.18604,-0.589111 -0.63562,-0.914673 -0.43408,-0.341064 -1.00769,-0.341064 -0.68213,0 -1.44177,0.63562 -0.75965,0.620117 -1.39527,1.736328 -0.49609,0.883667 -0.83716,1.953369 -0.32556,1.069702 -0.32556,1.767334 0,0.79065 0.29456,1.240235 0.31006,0.449585 0.86816,0.449585 0.71314,0 1.48828,-0.666626 0.77515,-0.666626 1.53479,-1.906861 0.46509,-0.713135 0.72864,-1.426269 0.26355,-0.713135 0.58911,-1.984375 z m -18.944581,-1.255737 1.395264,-0.63562 v 0.279052 0.124024 q 0,1.100708 0.06201,2.046387 0.06201,0.945678 0.232547,2.697509 0.21704,2.046387 0.32556,2.495972 0.10852,0.449585 0.37207,0.449585 0.34106,0 1.11621,-1.085205 0.77515,-1.100708 1.51929,-2.651001 l -0.48059,-3.720703 1.41076,-0.63562 0.0155,0.387573 q 0.12402,3.317627 0.26355,4.759399 0.0465,0.372071 0.093,0.79065 0.0465,0.403076 0.062,0.63562 0.031,0.232544 0.0775,0.542602 0.0465,0.294556 0.062,0.387574 0.12403,0.511596 0.40308,0.511596 0.5581,0 1.92236,-2.216919 1.28675,-2.046386 1.28675,-3.457153 0,-1.131714 -0.74415,-1.64331 l 1.17823,-1.085206 q 0.5426,0.620118 0.5426,1.612305 0,1.085205 -0.60461,2.464966 -0.60462,1.379761 -1.79834,3.085083 -0.74415,1.038696 -1.36426,1.720825 -0.68213,0.775147 -1.11621,0.775147 -0.34107,0 -0.5116,-0.310059 -0.17053,-0.325561 -0.26355,-1.085205 l -0.34106,-2.775024 q -0.68213,1.37976 -1.5658,2.573486 -1.16272,1.596802 -1.86035,1.596802 -0.325565,0 -0.480594,-0.279053 -0.15503,-0.294556 -0.279053,-1.069702 z m -12.340332,-0.63562 -1.503784,5.999633 q -0.201538,0.806153 -0.201538,1.364258 0,0.542603 0.341064,0.868164 0.341065,0.325562 0.883667,0.325562 1.317749,0 2.744019,-2.154907 l 0.06201,-0.09302 q 0.031,-0.155029 0.04651,-0.248047 l 0.976685,-5.426025 1.519287,-0.63562 -1.364258,5.100464 q -0.341064,1.255737 -0.341064,2.01538 0,0.496094 0.170532,0.806153 0.170532,0.310058 0.449585,0.310058 0.480591,0 1.53479,-1.147216 l 0.248047,0.217041 -0.155029,0.170532 q -0.883667,1.038696 -1.302247,1.410766 -0.418579,0.356568 -0.775146,0.356568 -0.480591,0 -0.821655,-0.480591 -0.325562,-0.496094 -0.325562,-1.224731 0,-0.232544 0.0155,-0.434083 -1.612305,2.139405 -3.193603,2.139405 -0.79065,0 -1.271241,-0.449585 -0.465088,-0.465088 -0.465088,-1.224732 0,-0.589111 0.170533,-1.441772 l 1.054199,-5.488037 z m -12.448852,6.092651 q 0,-1.395264 0.74414,-2.775024 0.759644,-1.395264 1.953369,-2.263428 1.193726,-0.868164 2.43396,-0.868164 1.302246,0 2.092896,0.868164 0.806152,0.852661 0.806152,2.216919 0,1.488281 -0.74414,2.883545 -0.728638,1.395263 -1.937867,2.294433 -1.193725,0.883667 -2.418457,0.883667 -1.317749,0 -2.123901,-0.883667 -0.806152,-0.89917 -0.806152,-2.356445 z m 6.635253,-3.410644 q 0,-0.930176 -0.465087,-1.534791 -0.449585,-0.604614 -1.16272,-0.604614 -0.651123,0 -1.255737,0.418579 -0.589112,0.418579 -1.085206,1.224732 -0.558105,0.930176 -0.930175,2.17041 -0.356568,1.240234 -0.356568,2.201416 0,1.147217 0.449585,1.767334 0.449585,0.620117 1.286743,0.620117 1.348755,0 2.371949,-1.875854 0.527099,-0.961182 0.837158,-2.154908 0.310058,-1.193725 0.310058,-2.232421 z M 62.970036,38.357819 63.72968,37.334625 q 0.899169,0.961182 2.030883,0.961182 1.193726,0 1.922364,-0.945679 0.728637,-0.945679 1.193725,-3.100586 l 0.713135,-3.209106 q -1.705322,1.999878 -3.085083,1.999878 -0.806152,0 -1.27124,-0.496094 -0.449585,-0.496094 -0.449585,-1.333252 0,-0.558105 0.139526,-1.224731 l 1.054199,-5.565552 1.503785,-0.63562 -1.503785,6.24768 q -0.186035,0.759644 -0.186035,1.131714 0,0.5271 0.310059,0.868164 0.325561,0.325562 0.852661,0.325562 0.573608,0 1.255737,-0.496094 0.697632,-0.511597 1.550293,-1.519287 l 1.333252,-5.922119 1.457276,-0.63562 -2.263428,9.115722 q -0.403076,1.643311 -0.775147,2.573487 -0.356567,0.930175 -0.837158,1.550293 -1.519287,1.953369 -3.7052,1.953369 -1.27124,0 -1.999878,-0.620117 z m -7.30188,-13.782105 h -1.519287 l 0.108521,-0.527099 h 1.53479 l 1.457275,-6.805787 q 0.37207,-1.689819 0.759644,-2.697509 0.387573,-1.007691 0.930175,-1.736329 1.333252,-1.782836 3.317627,-1.782836 0.666626,0 1.224732,0.217041 l -0.558106,1.410766 q -0.620117,-0.868164 -1.581299,-0.868164 -0.728637,0 -1.193725,0.573609 -0.449585,0.558105 -0.775147,1.860351 l -2.371948,9.828858 h 2.495972 l -0.108521,0.527099 h -2.511474 l -2.123902,8.805664 q -0.418579,1.767334 -0.806152,2.635498 -0.403076,0.868164 -1.085205,1.612305 -1.240235,1.348755 -2.713013,1.348755 -0.713135,0 -1.27124,-0.248047 l 0.759643,-1.116211 q 0.651124,0.5271 1.410767,0.5271 1.147217,0 1.720825,-1.209229 0.418579,-0.89917 0.883667,-2.976562 z m -16.076538,8.650635 0.465088,-1.193726 q 1.379761,0.604615 3.023071,0.604615 1.999878,0 3.643189,-1.333252 0.961181,-0.759644 1.612304,-1.705323 0.666626,-0.945678 1.410767,-2.573486 L 49.87006,26.77713 q -1.286743,-0.821655 -1.90686,-2.232422 -0.604614,-1.426269 -0.604614,-3.534668 0,-1.457275 0.449585,-3.131592 0.449585,-1.689819 1.240234,-3.147094 0.666626,-1.302246 1.441773,-2.030884 0.775146,-0.744141 1.457275,-0.744141 0.930176,0 1.42627,1.116211 0.496093,1.116211 0.496093,3.178101 0,1.565796 -0.356567,3.488159 -0.341065,1.90686 -0.976685,3.829224 -0.63562,1.922363 -1.333252,3.209106 0.449585,0.170532 0.945679,0.170532 0.496094,0 1.038696,-0.170532 l -0.139526,0.418579 q -0.403076,0.124024 -0.992187,0.124024 -0.604615,0 -1.116211,-0.124024 -1.255738,2.139405 -2.728516,3.534668 -1.457275,1.379761 -3.193604,2.046387 -1.720825,0.666626 -3.782714,0.666626 -0.992188,0 -1.643311,-0.217041 z m 10.510986,-6.945313 q 0.589112,-1.333252 1.147217,-3.503662 0.589111,-2.216919 0.992188,-4.542358 0.403076,-2.340943 0.403076,-3.581177 0,-1.054199 -0.248047,-1.627808 -0.248047,-0.573608 -0.744141,-0.573608 -0.713134,0 -1.457275,1.410767 -0.728638,1.395263 -1.209229,3.596679 -0.465087,2.201416 -0.465087,4.294312 0,3.426147 1.581298,4.526855 z" />
      <g
         style="font-style:normal;font-weight:normal;font-size:10.58329964px;line-height:1.25;font-family:sans-serif;fill:#000000;fill-opacity:1;stroke:none;stroke-width:0.071814"
         id="text1075" />
    </g>
  </g>
</svg>
